<svg id="SvgjsSvg1001" xmlns="http://www.w3.org/2000/svg" viewBox="0 0 287.99 96.03"><defs><style>.cls-1{fill:#fff;}</style></defs><g id="SvgjsG1008"><path class="cls-1" d="M53.88,66.24l5.21,1.32-.38-2.07c1.76-.09,3.53-.12,5.28-.29a12.93,12.93,0,0,0,5.87-1.75c.41-.27.78-.59,1.17-.88.14.89-1.4,4.08-2.75,5.72.48.5,1,1,1.43,1.51s.93,1,1.46,1.63a16.17,16.17,0,0,1-6.81,1.74c0,.43,0,.86,0,1.27s-.11.65-.6.68a27.23,27.23,0,0,1-9.09-.64c-3-.8-5.91-1.81-8.88-2.68-4-1.16-8.07-2.24-12.33-1.8a37.1,37.1,0,0,0-7.36,1.78c-3.27,1-6.41,2.55-9.82,3.15a41.5,41.5,0,0,1-5.42.73,16.63,16.63,0,0,1-3.67-.55c-.17,0-.36-.38-.39-.6a8.51,8.51,0,0,1,0-1.35A14.8,14.8,0,0,1,0,71.41l2.89-3.18A13.35,13.35,0,0,1,0,62.64a24.74,24.74,0,0,0,2.67,1.53,16.4,16.4,0,0,0,5.75,1.14c1.32.07,2.64,0,4.08,0-.19.89-.36,1.68-.56,2.56a22.41,22.41,0,0,0,5.9-1.19C6.87,59.6.51,49.86.19,36.6a33.84,33.84,0,0,1,9-24.19,35.24,35.24,0,0,1,53.34.92,33.94,33.94,0,0,1,7,13.33,35.64,35.64,0,0,1,.8,15,34.12,34.12,0,0,1-5.56,14A34,34,0,0,1,53.87,66.05ZM61,35.83c-.53-1.37-.16-2.15.88-2,.64.06.51-.23.48-.58a26.56,26.56,0,0,0-2.26-8.4A26.24,26.24,0,0,0,46.38,11.15a26.45,26.45,0,0,0-21.23-.27A27,27,0,0,0,8.41,33.83c-.06.64,0,1.3,0,2a3.47,3.47,0,0,1,2.09-.31c.2,0,.49.28.57.22.35-.27.61-.07.88.06a.45.45,0,0,1,.19.35c-.07.32-.16.63-.26.94l.09,0L12.5,36l1.53.5c.31.1.51.39.92.41s.86.1.75.66c.85.48,1.3-.25,1.84-.6a1.92,1.92,0,0,0,1.73.12,1.37,1.37,0,0,1,1.85.57l.2-.7a4.54,4.54,0,0,1,.12-.5c.25-.63.54-1.24.77-1.88s.43-1.35.66-2c.12-.37.3-.71.48-1.13-.48-.6.41-3,1.36-3.25,0,.24.05.48.08.71h.1l.13-.64h.1c.05.25.11.5.16.75h.1l.11-.64h.1c.06.23.12.46.21.87.08-.36.11-.54.16-.72h.1l.15.81c.13-.3.2-.48.3-.73.1.24.17.4.28.68l.12-.82c.13.26.18.37.23.48l.25-.31.19.48.28-.52.21.87h.14v-.86l.2-.08c.14.24.29.48.42.72a3.23,3.23,0,0,1,.25.49,6.43,6.43,0,0,1,.39,1.17c.06.4-.12.86,0,1.24.41,1.36.89,2.69,1.35,4l.45,1.32a.71.71,0,0,0,.1.14l.48.6c0-.32.19-.71.06-.93a.66.66,0,0,1,.09-.84c.55-.71,1.11-1.41,1.7-2.09.09-.1.42-.16.5-.08a1.13,1.13,0,0,1,.23.57c0,.2,0,.49.11.65.42.64,1,.4,1.47.38.23-.44.31-.91.58-1.06a5.14,5.14,0,0,1,1.65-.53,10.83,10.83,0,0,1,4.49.29c0,.21.09.42.12.63.08.39.29.52.7.49,1.16-.1,2.32-.17,3.49-.2.37,0,.74.18,1.12.19a1.27,1.27,0,0,0,.66-.24c.4-.27.65-.77,1.24-.76s1.24-.54,1.87,0l0,0a.94.94,0,0,1,1.27.1l1.09.86c.06,0,.22-.23.3-.2.4.13.6-.13.78-.37.4-.49.82-.61,1.2-.26.31-.09.53-.24.69-.19a11.2,11.2,0,0,1,1.54.61c.2.1.32.42.51.46.51.1,1,.1,1.68.16ZM29.25,63.23C13,59.06,5.94,44.37,7.82,31.86a27.91,27.91,0,0,1,54.74-2.38,26.93,26.93,0,0,1-2.12,18.85A27.85,27.85,0,0,1,42.21,63.06a1,1,0,0,0,.21.09c3,.76,5.93,1.45,8.86,2.3a3.17,3.17,0,0,0,3-.5A35.76,35.76,0,0,0,64.58,54.5,34.39,34.39,0,0,0,70,36.82,35.61,35.61,0,0,0,69,28,33.27,33.27,0,0,0,64,16.52a34,34,0,0,0-9.12-9.09A34.56,34.56,0,0,0,43.1,2.29,37,37,0,0,0,29.3,2,32.1,32.1,0,0,0,18.48,5.9a32.73,32.73,0,0,0-8.25,6.51A34.13,34.13,0,0,0,2.54,25.52,34.72,34.72,0,0,0,1.29,40.91a33.67,33.67,0,0,0,3.8,11.5,35.27,35.27,0,0,0,7.22,9.17,40.61,40.61,0,0,0,5.9,4.35,1.45,1.45,0,0,0,1.37.17c1.26-.45,2.54-.86,3.82-1.23,1.92-.57,3.86-1.08,5.85-1.63ZM7.43,68.55c0,1.83,0,3.77,0,5.71,0,.14.2.35.36.41a9.54,9.54,0,0,0,4.5.29,52.88,52.88,0,0,0,6.51-1.33c3.42-1,6.77-2.27,10.18-3.35a20.51,20.51,0,0,1,8.7-.9A66.08,66.08,0,0,1,50.18,72.5a31.3,31.3,0,0,0,8.13,2c1.78.08,3.56,0,5.35,0V68.26A21.69,21.69,0,0,1,57,67.69c-4-1.06-8-2.26-12-3.29a36,36,0,0,0-9.74-1.32,30.36,30.36,0,0,0-8,1.33c-3.06.89-6.09,1.85-9.13,2.81a23.23,23.23,0,0,1-6.43,1.33C10.35,68.58,8.93,68.55,7.43,68.55ZM16.91,55a1.82,1.82,0,0,0,1.72,1.37c.55-.09.56.18.61.57a1,1,0,0,0,.35.72,31.74,31.74,0,0,0,4.54,2.83,44.41,44.41,0,0,0,6.2,2,8.9,8.9,0,0,0,2.48.1c1.65,0,3.3-.14,4.95-.1a11.68,11.68,0,0,0,4-.23c.57-.18,1.13-.41,1.7-.58a27,27,0,0,0,6.65-3.07,1.35,1.35,0,0,0,.63-1.23,3.23,3.23,0,0,1-.61.41,2.87,2.87,0,0,1-1.09.27c-1.63-.09-3.25-.28-4.88-.36-1.3-.07-2.61,0-3.91,0a3,3,0,0,1-.42,0l0-.17A12.3,12.3,0,0,1,42,57.07c1.87-.1,3.74-.08,5.6-.15a10.78,10.78,0,0,0,1.78-.27c.12,0,.3-.25.28-.36a.56.56,0,0,0-.32-.4,1.79,1.79,0,0,0-.8-.12c-.83.07-1.66.2-2.48.29a9.55,9.55,0,0,1-1.39.12c-.24,0-.46-.26-.69-.4.22-.12.43-.32.65-.34.74-.07,1.48,0,2.22-.11s1.58-.13,2.37-.27A2.63,2.63,0,0,0,50,54.6a3.17,3.17,0,0,0-2.78.11c-.35.12-.73.19-1.09.28L46,54.77l1.63-.51c.54-.17,1.12-.32,1.66-.55a13.33,13.33,0,0,0,1.59-.83c.48-.29.93-.63,1.38-1A45.12,45.12,0,0,1,41.17,55a25.37,25.37,0,0,1-11-.87,3.47,3.47,0,0,1-1.57-.81c-.83-1-2-.9-3.08-1.32.43,1.74,1.92,2.62,2.67,4-.24.27-.38.26-.6,0-.79-1-1.6-2.06-2.44-3a1.14,1.14,0,0,0-.77-.38c-2.91,0-5.84,0-8.76,0-.16,0-.32,0-.49,0a.59.59,0,0,0,.71.58L20,53.08a1,1,0,0,1,1.05.79h-4.6a2.41,2.41,0,0,0,2.23,1.35c2.67,0,5.33.23,8,.37a2.37,2.37,0,0,1,.69.24c0,.06,0,.12,0,.18-.26,0-.52,0-.78,0-2.45-.14-4.9-.28-7.35-.44C18.39,55.5,17.54,55.8,16.91,55ZM70,64.14c-3.11,1.61-6.35,1.82-9.75,1.93a7,7,0,0,0,4.12,1.54v4.94a14.73,14.73,0,0,0,5.86-1.36l-2.88-3C68.71,67.19,69.27,65.71,70,64.14Zm-59.1,1.93c-3.34-.12-6.58-.31-9.67-1.88a7.59,7.59,0,0,0,2.62,4L.92,71.23a16.1,16.1,0,0,0,5.88,1.3V67.66a7.23,7.23,0,0,0,4.09-1.59ZM60.55,37.32a7.57,7.57,0,0,0-1-.27,1.93,1.93,0,0,1-1.32-.63,1.3,1.3,0,0,0-1.45-.34,9.07,9.07,0,0,0-1.38.64,2.63,2.63,0,0,1-2.48-.36,1.93,1.93,0,0,0-2.15-.54,6.71,6.71,0,0,0-1.35.77c-.34.23-.65.51-1,.78-.4-.7-1.43-1-2.66-.75a1.21,1.21,0,0,0,.43.35c.78.38,1.55.76,2.33,1.11a.51.51,0,0,0,.4,0,5.94,5.94,0,0,0,1.29-.7c.75-.64,1.07-.64,1.79,0a2.38,2.38,0,0,0,2.37.76c.53-.16,1-.37,1.56-.56a.64.64,0,0,0,.2-.2c.36-.58.85-.7,1.31-.24a3,3,0,0,0,2.13,1A.88.88,0,0,0,60.55,37.32Zm.08,2H43.51v.64a3,3,0,0,0,.42,0H60.17c.53,0,.58-.23.47-.69ZM47.46,52.87l-.17-.14a42.29,42.29,0,0,1-9.7,1.13c-3.33.17-6.45-1-9.74-1.84a1.69,1.69,0,0,0,1.31.93c1.68.42,3.35.85,5.05,1.16a28.78,28.78,0,0,0,10.9-.41c.64-.12,1.29-.25,1.93-.42C47.2,53.24,47.32,53,47.46,52.87ZM44,42.5l0-.22a3.7,3.7,0,0,0-.57-.07l-5.31.19a2.85,2.85,0,0,0-.4,0,9.84,9.84,0,0,1-1.2.15c-.56,0-1.12-.11-1.68-.13a10.86,10.86,0,0,1-2,0,3.2,3.2,0,0,0-2.14.31,5.22,5.22,0,0,0,.74.3,2.06,2.06,0,0,0,.7,0c2.26-.15,4.52.18,6.78-.28a28.69,28.69,0,0,1,4.36-.23l.67,0ZM34.71,44l-2.36-.13a7.77,7.77,0,0,0,.08,1c0,.12.2.31.31.31.63,0,1.26,0,1.91,0,0-.39,0-.74.05-1.16ZM18.5,45.29v-1H16.64c0,.35-.07.68-.1,1ZM16,44.37H14.07c0,.32-.05.61-.08.91h2Zm27.83,8.36,0,.07a6.28,6.28,0,0,0,1.09-.33.65.65,0,0,0,.27-.55c0-.09-.32-.26-.49-.25a7.06,7.06,0,0,0-1.37.19c-.18,0-.32.25-.47.38a3,3,0,0,0,.5.45A1,1,0,0,0,43.78,52.73Zm-3-2.79a2,2,0,0,0,.72-.06c.2-.08.32-.33.47-.51-.15-.13-.29-.34-.45-.36a5.86,5.86,0,0,0-1.45,0c-.17,0-.33.36-.4.59,0,.06.27.28.45.34A2.35,2.35,0,0,0,40.82,49.94ZM13,45.54a4.35,4.35,0,0,0,0-.82c0-.14-.2-.35-.33-.36-.43,0-.87,0-1.31,0-.05.39-.1.71-.15,1.11Zm2.87-3.87H13.42c.05.29.09.53.13.74h2.3Zm26.91,7c-.16.75.08,1.07.72,1a4.08,4.08,0,0,0,1-.15c.16-.05.28-.25.42-.38-.18-.17-.35-.45-.54-.48A11.86,11.86,0,0,0,42.76,48.72ZM26.89,44.91V44.1H24.66v.81Zm4.65-1.32H30.15c-.13,1.34,0,1.46,1.45,1.15,0-.16,0-.33,0-.5s0-.42-.06-.65ZM21,42.31v-.9H19.83c-.87,0-.88,0-.76.9Zm18.16,2.46h1.45V43.66H39.13Zm.78,1.92,2.17-.21c-.27-.33-.42-.69-.62-.73a9.76,9.76,0,0,0-1.63,0c0,.36.05.63.08,1Zm-4.7-3c.06.48.1.91.15,1.36h1.15V43.64ZM20.63,45.88c.17.36.26.82.44.86a7.51,7.51,0,0,0,1.5,0v-.89Zm19.05,1.57h-.61c-.32,0-.46.13-.46.45s.1.53.46.51a1.92,1.92,0,0,0,.64,0c.33-.13.92,0,.91-.5s-.62-.32-.93-.42Zm-24-.76h2V46h-2Zm27,.35,0,.09a5.56,5.56,0,0,0-.81.08c-.2,0-.53.2-.52.3,0,.35.13.72.61.66a3.12,3.12,0,0,0,.9-.22c.21-.11.35-.36.52-.55Zm-.35,5.66c-.15-.25-.19-.37-.23-.37-.78,0-1.55-.08-2.33-.09-.07,0-.18.23-.19.37s.18.22.27.22c.79,0,1.57-.08,2.48-.13Zm-3.1-6.87L38,45.91c-.65,0-.7.1-.51.78h1.74Zm8.12.58,0,.09a1.85,1.85,0,0,0-.63.06,1.09,1.09,0,0,0-.45.5c0,.08.16.39.24.38a8.41,8.41,0,0,0,1.5-.26c.08,0,.16-.45.1-.49a2.91,2.91,0,0,0-.73-.28ZM24,41.34H21.53c.22.29.34.59.48.6.64.05,1.29,0,2,0Zm-.18,2.8H22.1v.79l1.7.08Zm-8.63-.54h2.17v-.67H15.29C15.25,43.15,15.22,43.34,15.17,43.6Zm1.58-1.23h1.58v-.83H16.75ZM12,42.93l0,.56H14.5c.12-.43,0-.58-.41-.56C13.43,43,12.78,42.93,12,42.93Zm25.19,1c0,.32,0,.62-.07,1h1.46C38.58,43.82,38.55,43.8,37.22,43.9Zm-2.38,5.69.14.09.88,0c.76,0,.76,0,.76-.83l-1.7-.12C34.89,49.09,34.86,49.35,34.84,49.59ZM41.06,51a2.68,2.68,0,0,0,.7.32,7,7,0,0,0,1.21,0,1.7,1.7,0,0,0,.47-.23c-.13-.18-.24-.5-.38-.51A2.58,2.58,0,0,0,41.06,51Zm5.73-6.35-1.61.27c.1.35.19.62.28,1l1.4-.3C46.83,45.25,46.81,45,46.79,44.66ZM32.65,50l-.07.15a2.66,2.66,0,0,0-.63,0,.44.44,0,0,0-.31.27.39.39,0,0,0,.23.33,6.34,6.34,0,0,0,1.3.24.31.31,0,0,0,.28-.52A3.15,3.15,0,0,0,32.65,50Zm2.1-3.28,1.51.14V46H34.75ZM25,42h1.69v-.79H25Zm22.53,6.86,1.89-.21c0-.31-.07-.58-.1-.86-1.52.22-1.7.31-1.8,1.07Zm-8.61.31H37.38v.78l.8.06c.86.07.86.07.76-.84ZM50,47.93h.95c.89,0,1-.14.57-1C50.32,47.08,50.08,47.23,50,47.93Zm-17-.6-1.73-.13c0,.32,0,.56.05.8l1.46.24C32.86,47.91,32.92,47.65,33,47.33Zm-9.14,1.28-.17.17c.12.19.23.52.37.53a9.05,9.05,0,0,0,1.56-.06c.11,0,.2-.18.31-.27-.12-.09-.22-.24-.35-.24-.57-.07-1.14-.1-1.72-.14Zm17.08,2.7c-.21-.61-.5-.7-1.63-.57-.41,0-.5.32-.51.79ZM20.46,48.22c.42-.19,1,.06,1-.55s-.54-.39-.87-.41-.86,0-.89.45C19.66,47.86,20.18,48.05,20.46,48.22Zm11.9-2.36c.12.86.34,1,1.56.85.06-.91-.05-1-1.56-.85ZM15,46.78c.13-.4.05-.57-.35-.56s-1,0-1.5,0c-.14,0-.26.18-.39.28.12.09.24.24.35.25.62,0,1.24,0,1.89,0Zm31,3.64a2.25,2.25,0,0,0-1.87.06.43.43,0,0,0,0,.44,1.45,1.45,0,0,0,1.87-.5ZM36,51l0,.22a3.39,3.39,0,0,0,2.32.11c-.44-.76-1.11-.47-1.65-.54A1.8,1.8,0,0,0,36,51ZM16.24,49.23a2,2,0,0,0,1.87.37c.12-.07.25-.32.21-.4a.62.62,0,0,0-.42-.28,6.29,6.29,0,0,0-1.15.08,1.75,1.75,0,0,0-.51.23Zm11-1.92H25.26v.58h1.95Zm7.69-5.44c.13-.5,0-.74-.48-.7a4.29,4.29,0,0,1-.8,0c-.56,0-.69.19-.51.7ZM18.46,46.53h1.79v-.64H18.46Zm25.6-3.29H43c-.09,1.12,0,1.17,1,.95ZM24.85,50.79l0-.21c-.1-.1-.21-.27-.32-.28-.58,0-1.16,0-1.73,0-.12,0-.22.17-.33.26.1.09.19.27.29.27C23.49,50.83,24.17,50.81,24.85,50.79Zm-2.67-2.94h2.28c-.09-.49-.09-.5-1.62-.48C22.52,47.38,22.17,47.38,22.18,47.85Zm11.4-.46c.12.81.72,1.07,1.81.81l0-.6Zm12.27,2c.34-.1.67-.21,1-.34.13-.05.21-.21.31-.32-.16-.13-.32-.34-.49-.35a1.66,1.66,0,0,0-.79.14c-.16.07-.37.28-.36.42s.22.3.34.44ZM15.1,48.89,15,49a.48.48,0,0,0-.17,0l-.78.34.82.41H15c.33,0,.8.08.84-.38,0-.15-.48-.34-.74-.51ZM48.62,50c-.35-.22-.56-.46-.72-.43a4.5,4.5,0,0,0-1.17.45s0,.33.07.48a.41.41,0,0,0,.35.08C47.59,50.44,48,50.26,48.62,50Zm-31.29.8a2.11,2.11,0,0,0-1.89-.31.46.46,0,0,0,0,.44A2.36,2.36,0,0,0,17.33,50.81Zm12.87,0c.26-.26.53-.4.56-.58.09-.7-.53-.54-.89-.6-.14,0-.35.29-.53.46ZM12.62,41.69h-1.8c.1.25.15.6.25.61a13.33,13.33,0,0,0,1.55,0Zm6.46,5.82a11.31,11.31,0,0,0-1.3,0c-.15,0-.27.21-.41.32.14.13.28.33.44.35a4.16,4.16,0,0,0,.93,0C19.15,48.15,19.31,48,19.08,47.51Zm2-3.13H19.39l0,.59h1.64Zm21.29-.8h-1v1.05C42.41,44.8,42.44,44.77,42.34,43.58ZM18.5,50.22h-.24c-.21.07-.56.13-.58.25-.08.39.26.45.55.5a1,1,0,0,0,.24,0c.35-.05.92.22,1-.32S18.85,50.3,18.5,50.22ZM47.43,52c-.16-.61-.53-.72-1.36-.53-.56.12-.45.45-.38.75Zm1.66-7.8c-1.32.11-1.4.17-1.21,1l1.21-.09ZM29.41,41.33h-1.6v.6h1.6Zm8.38,7c0-.75-.32-.86-1.56-.7v.7ZM13,48.55l-.85.7c.25.14.49.4.74.4s.5-.24.76-.38Zm30.25-2.29h1.11v-.93h-.62l-.63,0C43.13,45.7,43.18,46,43.22,46.26Zm1.7.5c-.33.25-.69.39-.77.62-.16.48.16.63.89.4a1.88,1.88,0,0,0,.49-.36Zm4.45-4c-.36-.13-.67-.35-.93-.3s-.85,0-.78.6C48.51,43.37,48.93,43.33,49.37,42.74Zm-28.25,6-.15.2c.13.16.25.45.39.45.61,0,1.23,0,1.85-.07V49Zm24.7-5.59h-1.1v.75h1.1Zm-24-.31a8.42,8.42,0,0,0-.87,0c-.1,0-.18.14-.27.21.1.09.19.25.28.25.55,0,1.09,0,1.63,0,.09,0,.18-.13.27-.21-.09-.09-.18-.23-.29-.25a4.7,4.7,0,0,0-.75,0ZM18.88,49c.27.61.67.84,1.11.63a.69.69,0,0,0,.29-.38.36.36,0,0,0-.15-.32C19.71,48.81,19.27,48.63,18.88,49ZM36,40.07h1.65c0-.2,0-.36,0-.52H36c0,.19,0,.34,0,.52Zm-.76,0-.05-.55H33.6v.55Zm8.86-1.48.14-.16c-.11-.13-.23-.38-.36-.39a13.08,13.08,0,0,0-1.4,0v.57ZM9.62,43.13c.14.66.65.8,1.93.49-.2-.2-.33-.45-.49-.46a11.26,11.26,0,0,0-1.43,0Zm31.32-3.06c1.81.08,1.82.07,1.61-.53H41ZM12.27,47.82l-.11.14c.12.14.23.37.35.38a13.65,13.65,0,0,0,1.43,0l.11-.16c-.12-.13-.23-.35-.35-.37C13.23,47.79,12.75,47.82,12.27,47.82ZM31.1,40.06c1.69.1,1.85.09,1.59-.52H31.1Zm1.59-1.47h1.66c0-.21-.05-.37-.06-.52h-1.6ZM23.5,46.52h1.61c0-.21,0-.38,0-.54H23.5Zm16.64-7h-1.6v.54h1.6ZM22.23,50.81a2.92,2.92,0,0,0-2.05-.39c-.06.06,0,.38,0,.38C20.83,50.82,21.47,50.81,22.23,50.81ZM40,38.06c.06.21.09.52.14.52.49,0,1,0,1.51,0,0-.21,0-.37,0-.54Zm-.83.55c.12-.41,0-.61-.38-.58s-.81,0-1.25,0c0,.25,0,.41.05.59Zm-2.45-.55H35.14c0,.21,0,.37,0,.53h1.6Zm1.68,3c-.09.38,0,.59.4.58a4.82,4.82,0,0,1,.76,0c.45,0,.54-.17.39-.58Zm-2.83,10c-.09-.65-.6-.47-.94-.54s-.58,0-.68.46a1.9,1.9,0,0,0,1.63.08Zm-3.08-1.74,1.32.23c.06-.29.1-.51.15-.74l-.08-.13C33.54,49.08,32.77,48.25,32.53,49.32ZM36,41.21c0,.57.23.65,1.29.51.14,0,.25-.24.38-.37l-.12-.14ZM24.62,51.4a1.67,1.67,0,0,0,.08.26c.65.08,1.31.17,2,.23,0,0,.18-.21.16-.3s-.19-.18-.3-.19Zm5.74-9.62h1.69a.54.54,0,0,0,.27-.14c0-.06,0-.26,0-.26q-.94,0-1.89.06A2,2,0,0,0,30.36,41.78ZM18,43.21l.12.16c.54,0,1.08,0,1.62,0,.08,0,.17-.15.25-.24-.08-.08-.16-.22-.25-.22a10.75,10.75,0,0,0-1.39,0C18.18,42.91,18.07,43.1,18,43.21ZM16.76,48l-.12-.16c-.64.14-1.37-.23-1.92.39a8,8,0,0,0,1.7.08c.12,0,.23-.2.34-.31ZM31.83,51.7,30,51.49c.14.53.76.77,1.81.7Zm5.78,1.22c1.42.15,1.47.12,1.28-.52l-1.27-.15Zm-9.33-7.51c0,.74.28.89,1.22.84.08-.62-.16-.8-1.21-.84ZM33,52.14c0,.49.46.71,1.54.65V52.3ZM10.37,42.46c.12-.32.16-.55-.27-.55s-.63,0-.94,0c-.1,0-.19.13-.28.2.08.07.16.2.26.22C9.55,42.4,10,42.42,10.37,42.46Zm2.65,8c.46.78.89.84,1.67.16Zm13.43-7.72c0,.56.26.64,1.28.42,0-.54-.18-.61-1.28-.42Zm4,3c-.05.61.27.79,1.17.7.05-.6-.16-.73-1.17-.7Zm-2.42,5c0,.57.43.82,1.4.77l0-.47Zm-12.12.75c.15.43.85.59,2,.44-.16-.34-.91-.5-2-.44Zm-5.35-6.94H9.89c-.17.61.11.9.67,1.07ZM27.3,46.31c0-.21,0-.54-.1-.55a2.27,2.27,0,0,0-1,0c-.13,0-.19.33-.32.57Zm3.25,2.17c.07.48.9,1,1.21.72,0-.12,0-.28.09-.48Zm4.88,3.73c.15.8.81.42,1.24.71l.07-.71Zm-8.63-2-.13-.12a3.94,3.94,0,0,0-.91,0c-.11,0-.18.27-.26.42a5,5,0,0,0,.95,0c.13,0,.24-.25.36-.38Zm1.54-2.09-.14.11c.11.15.2.39.35.44a7.84,7.84,0,0,0,1.09.25c0-.13,0-.33-.12-.37-.37-.17-.78-.29-1.17-.43Zm-3.73-4.72.78-.32a2.89,2.89,0,0,0-.79-.21c-.23,0-.63-.24-.67.24,0,.07.42.17.69.29ZM12,46.87c-.28-.57-.63-.76-1.18-.58v.58ZM28.6,43.64c0,.27,0,.51,0,.78h.75v-.78Zm29.48,0a4.59,4.59,0,0,0,0-1.09.28.28,0,0,0-.52-.14C57.39,42.62,57.59,43.27,58.08,43.59ZM28.15,46.46c-.08.88.08,1,.8.91C29.18,46.65,28.54,46.71,28.15,46.46ZM45.54,41h0c-.14,0-.31-.05-.4,0s-.15.27-.22.4l1.19,0c0-.12-.08-.29-.17-.34S45.68,41,45.54,41Zm-26,10.62a1.87,1.87,0,0,0,1.87.11A6.69,6.69,0,0,0,19.58,51.58Zm9.94-4.51c0,.87.64.53,1,.81.06-.24.12-.41.17-.61Zm-2.8,1.31c-.17.23-.38.45-.35.49a1,1,0,0,0,.51.41c.1,0,.26-.27.4-.42Zm14.06-7.31-.07.14c.12.09.24.25.36.26a7.45,7.45,0,0,0,1-.09c-.06-.11-.12-.29-.2-.3-.34,0-.68,0-1,0Zm3.3.47c0-.5-.26-.67-.86-.51a.37.37,0,0,0-.22.25.36.36,0,0,0,.23.25A6,6,0,0,0,44.08,41.54Zm12.24.92-.25-.07a1.83,1.83,0,0,0-.28.69c0,.11.31.24.49.36l.14-.12C56.38,43,56.35,42.75,56.32,42.46Zm-6.74,10c-.28-.14-.44-.27-.53-.24a2,2,0,0,0-.5.32c.1.13.24.37.3.35A4.27,4.27,0,0,0,49.58,52.43Zm6.72-7.65,0,.1,1.36-.08c-.31-.23-.51-.5-.65-.46A2.38,2.38,0,0,0,56.3,44.78Zm-29-8.92.46.39c.09-.16.24-.31.25-.48s-.16-.23-.24-.35Zm.59,13.24c0,.22-.06.36,0,.44a2,2,0,0,0,.43.43c.05,0,.2-.06.3-.09a2.49,2.49,0,0,0-.27-.51A1.7,1.7,0,0,0,27.89,49.1ZM16.11,38.76l-.19-.23a2.28,2.28,0,0,0-.5.36,1.41,1.41,0,0,0-.12.48l.18.06Zm36.68,8.47-.06.22a3.79,3.79,0,0,0,.68.26c.11,0,.24-.16.37-.25-.11-.09-.2-.23-.32-.25a3.75,3.75,0,0,0-.67,0ZM49.06,50.6c1.07,0,1.07,0,.9-.59ZM51,48.69l-1,.64c.4,0,1,.32,1-.64Zm4.53-2.95-.06.21a.61.61,0,0,0,.84.34c.06,0,.08-.19.11-.29Zm193.4-44V.84h.64c5.77,0,11.53,0,17.29,0a22.15,22.15,0,0,1,8.57,1.44c3.72,1.57,6.08,4.27,6.37,8.39.31,4.45-1.67,7.72-5.58,9.82a17.45,17.45,0,0,1-7.55,1.75c-1.59.08-3.19.1-4.78.14-.13,0-.26,0-.47.05v.7c0,3.6,0,7.2,0,10.8a22.21,22.21,0,0,0,.16,2.44,2.7,2.7,0,0,0,2.18,2.43c1,.2,2,.26,3,.39v.89H249v-.93c.79-.06,1.58-.1,2.37-.21a3,3,0,0,0,2.91-3.05c.07-.83.11-1.67.12-2.5q0-12.93,0-25.85c0-1-.1-2-.19-3a2.53,2.53,0,0,0-2.1-2.35C251.06,2,250,1.89,248.94,1.75Zm14.49,1.42V3.8c0,5.21,0,10.42,0,15.63,0,.58.19.76.73.72s.89,0,1.34,0a6.28,6.28,0,0,0,6.23-4.84,14.26,14.26,0,0,0,0-7.31,5.79,5.79,0,0,0-3.59-4.23,11,11,0,0,0-4.74-.6Zm-97.87,0c-2.16,0-4.28-.16-6.35.46a6.76,6.76,0,0,0-4.18,4,27.64,27.64,0,0,0-1.1,3.37c-.06.18-.08.37-.13.58h-1.1V.88H188V11.51h-.93c-.35-1-.67-2.11-1-3.15a7.68,7.68,0,0,0-4-4.6,4.82,4.82,0,0,0-1.78-.49c-1.69-.06-3.38,0-5.13,0V33.69c0,.75,0,1.51.1,2.27a3,3,0,0,0,2.59,3,14.13,14.13,0,0,0,1.85.17c.31,0,.62,0,1,0v1H160.05v-1c.74,0,1.48,0,2.21,0a3.13,3.13,0,0,0,3.22-2.91c.06-.53.1-1,.11-1.57V3.47C165.59,3.39,165.57,3.32,165.56,3.14Zm81.11,36v1h-19v-.93c.54,0,1.1,0,1.65-.09a9.46,9.46,0,0,0,1.82-.36,1.54,1.54,0,0,0,1.12-1.81,4.49,4.49,0,0,0-.3-1.24q-1.33-3.19-2.73-6.37a.77.77,0,0,0-.55-.35q-6.45,0-12.9,0a.7.7,0,0,0-.54.28c-.75,1.71-1.51,3.41-2.15,5.16a5.21,5.21,0,0,0-.2,2.12,2.3,2.3,0,0,0,1.86,2.13,18.11,18.11,0,0,0,2.41.41c.89.12.89.09.83,1H205c-.16-.89-.16-.9.65-1.11a5.28,5.28,0,0,0,3.44-2.51c1.07-1.91,2.11-3.85,3-5.84q6.75-15,13.41-29.92a1.11,1.11,0,0,1,.12-.27c.16-.16.32-.43.49-.43s.4.23.49.42c.87,1.93,1.71,3.87,2.56,5.81Q235.22,20,241.28,33.72c.38.85.84,1.66,1.28,2.49C243.44,37.84,244.62,39,246.67,39.1ZM228.14,26.72,222.32,13.4l-6,13.32ZM85,1.84v-1h18.87v.93c-.75,0-1.48.07-2.21.14-2.41.21-3.1,1.24-2.18,3.46,1.92,4.65,3.92,9.26,5.89,13.89,1.19,2.78,2.39,5.57,3.59,8.35.08.19.17.38.29.62.08-.12.16-.25.23-.38,2.88-6.49,5.78-13,8.63-19.5A13.42,13.42,0,0,0,119,5.27a2.5,2.5,0,0,0-1.74-2.88A8.31,8.31,0,0,0,115.65,2c-.53-.09-1.08-.1-1.67-.15V.89h12.83v1c-2.57.51-4.09,2.24-5.14,4.45q-2.78,5.81-5.42,11.67-5.09,11.25-10.12,22.53a.78.78,0,0,1-.81.56c-.48,0-.58-.26-.72-.6Q97.51,24,90.39,7.58c-.5-1.16-1.11-2.27-1.62-3.42A3.75,3.75,0,0,0,85.69,2Zm43.59,0V.87h20.53v.94c-.77,0-1.54,0-2.31.13A3.09,3.09,0,0,0,143.72,5c0,.6-.08,1.2-.08,1.81q0,13.63,0,27.3a15.49,15.49,0,0,0,.08,1.8A3.21,3.21,0,0,0,147,39.06c.69,0,1.39,0,2.11,0v1H128.63v-1c.7,0,1.42,0,2.13,0a3.14,3.14,0,0,0,3-1.87,5.34,5.34,0,0,0,.31-1.53c.06-.77.07-1.55.07-2.33q0-13,0-25.9c0-.8,0-1.6-.08-2.39a3.1,3.1,0,0,0-3-3.09c-.8-.09-1.62-.1-2.47-.14Zm158.8,44.65v1.45H79.91V46.46ZM195.22,66v4c0,1.15,0,2.29.05,3.44A1.7,1.7,0,0,0,197,75.33c.42.07.84.06,1.29.09V76H186.92q0-.27,0-.51l.2-.07c.31,0,.62,0,.93,0,1.24-.12,1.94-.73,1.91-1.9,0-.48.07-1,.07-1.45V58c0-.6,0-1.2-.09-1.8a1.61,1.61,0,0,0-1.48-1.6c-.48-.08-1-.11-1.5-.16,0-.15,0-.31-.05-.5a2.25,2.25,0,0,1,.36-.06c4,0,8.06,0,12.09.06a14.77,14.77,0,0,1,4,.58A5.68,5.68,0,0,1,205.65,64,6.68,6.68,0,0,1,203,65.43l-.48.18L205.56,70c1,1.38,2,2.77,3,4.12a2.73,2.73,0,0,0,2.16,1.35c.16.41.06.58-.43.58-2,0-4,0-6,0a.81.81,0,0,1-.76-.41c-2.07-2.94-4.18-5.85-6.2-8.82a1.64,1.64,0,0,0-2.07-.77Zm0-1.26c1.31-.11,2.55-.16,3.77-.36a3.28,3.28,0,0,0,2.68-2.54,7,7,0,0,0,0-4,3.33,3.33,0,0,0-1.72-2.11,9.82,9.82,0,0,0-4.69-.58ZM164.73,53.9h18.46v6.43l-.56,0c-.18-.61-.33-1.18-.52-1.75a4.4,4.4,0,0,0-3.77-3.22c-1.7-.23-3.44-.21-5.2-.3v9a3.26,3.26,0,0,0,3.67-1.65A30.38,30.38,0,0,0,178,59.09L177.8,59l.6,0V70.49l-.52,0c-.21-.83-.35-1.64-.61-2.4a3.54,3.54,0,0,0-4.1-2.64s0,.06,0,.1c0,2.52,0,5.05,0,7.58,0,1.06.47,1.51,1.5,1.57a12,12,0,0,0,5.24-.52A7,7,0,0,0,184,69.49c.17-.53.18-.53.79-.47-.33,2.31-.65,4.6-1,6.94H164.7v-.58c.42,0,.8,0,1.19,0a1.72,1.72,0,0,0,1.81-1.86c.05-3.29.06-6.57.07-9.86,0-2.3,0-4.59,0-6.88,0-1.59-.66-2.25-2.26-2.29-.23,0-.47,0-.74,0Zm-61.6.55V53.9l.54,0c2.28,0,4.55,0,6.83,0a.94.94,0,0,1,.83.4q5,6.24,10,12.44c.14.18.29.35.51.61,0-.29,0-.48,0-.66V57.84c0-2.46-.7-3.21-3.16-3.41,0-.15,0-.32,0-.52H126v.51s0,0-.08.06l-1.09.22a1.9,1.9,0,0,0-1.58,1.72,12,12,0,0,0-.13,1.8q0,8.75,0,17.5v.91a3.75,3.75,0,0,1-.87-.51q-7-8.62-14-17.26l-.54-.63c0,.3,0,.47,0,.65V72c0,.17,0,.35,0,.52.17,2,1,2.82,3,2.86l.33,0c0,.18,0,.34,0,.55h-7.89v-.53c.39,0,.76-.06,1.12-.13A2.27,2.27,0,0,0,106.39,73c0-.25,0-.5,0-.76V57.5A3.39,3.39,0,0,0,104,54.59l-.87-.14Zm-23.68,0v-.52H90.81c0,.15,0,.32.06.5a1.05,1.05,0,0,1-.24.06c-.49,0-1,0-1.45.1a1.52,1.52,0,0,0-1.46,1.54c0,.5-.07,1-.07,1.52,0,3.79,0,7.58,0,11.37a22,22,0,0,0,.16,2.44,3.62,3.62,0,0,0,3,3.25,5.11,5.11,0,0,0,6.47-4.25,18.61,18.61,0,0,0,.25-2.9c0-3.3,0-6.61,0-9.91a6.75,6.75,0,0,0-.12-1.27,2,2,0,0,0-1.76-1.76c-.38-.07-.77-.1-1.19-.16,0-.16,0-.32,0-.53H102c0,.16,0,.33,0,.52l-.3,0c-1.9.06-2.7.76-2.75,2.64-.07,3.05,0,6.11-.06,9.16,0,1.3-.1,2.6-.18,3.9a6.65,6.65,0,0,1-5.34,6,12.39,12.39,0,0,1-6,0c-3.69-1-5-3.35-5.08-6.53-.09-3.93,0-7.86,0-11.78,0-.56,0-1.13-.08-1.69a1.54,1.54,0,0,0-1.44-1.56C80.37,54.51,79.94,54.49,79.45,54.43Zm146.29,6.32a17.1,17.1,0,0,0-.69-2,6.46,6.46,0,0,0-5.54-4,3.65,3.65,0,0,0-3.16,1.16,2.44,2.44,0,0,0-.1,3.3,8.41,8.41,0,0,0,2,1.63c1.91,1.11,3.91,2.07,5.83,3.19a6.76,6.76,0,0,1,3.29,3.93,6.65,6.65,0,0,1-4.59,8.16,9.25,9.25,0,0,1-6.39-.26c-.42-.17-.83-.35-1.25-.49a1.77,1.77,0,0,0-2.26.78,3.12,3.12,0,0,1-.63.49l-.14-.13V68.17c.44-.18.59,0,.69.44a8.65,8.65,0,0,0,3.76,5.68,5.68,5.68,0,0,0,4.9.74,3.06,3.06,0,0,0,1.3-5.33,18.18,18.18,0,0,0-3.15-2.06c-1.45-.86-3-1.59-4.4-2.5a6.45,6.45,0,0,1-2.89-3.83,6.32,6.32,0,0,1,5.15-7.77,8.66,8.66,0,0,1,5.28.72c.39.19.78.36,1.18.51.93.33,1.31.12,1.6-.83.15-.5.15-.5.64-.48.06,2.41.11,4.83.17,7.28Zm38.83-6.27V53.9h10.55v.52a10.88,10.88,0,0,0-1.34.17c-.74.17-1,.6-.69,1.29q.63,1.44,1.38,2.82c1.15,2.14,2.33,4.26,3.5,6.39.08.15.18.3.32.54,1.71-3,3.42-5.82,5-8.75.78-1.41.37-2.06-1.22-2.31l-.83-.12V53.9H288v.59c-1.5.07-2.26,1.14-2.94,2.27-2,3.27-3.95,6.56-5.91,9.85a1.26,1.26,0,0,0-.17.6c0,2.06,0,4.12,0,6.18a1.84,1.84,0,0,0,2,2c.48,0,1,0,1.48,0V76H270.09l0-.52a1.55,1.55,0,0,1,.31-.06,12.59,12.59,0,0,0,1.85-.13,1.49,1.49,0,0,0,1.33-1.54c.06-1.9.06-3.81.07-5.72a1.12,1.12,0,0,0-.18-.53l-5.61-10.22c-.25-.44-.54-.86-.8-1.29a2.7,2.7,0,0,0-2.46-1.47Zm-5.76,20.91a1.1,1.1,0,0,1,.06.26,1.73,1.73,0,0,1,0,.32H247.38v-.58c.33,0,.64,0,1,0,1.37,0,2.06-.68,2.07-2,0-2.55,0-5.09,0-7.64V55.2a9.41,9.41,0,0,0-4.09.43,3.67,3.67,0,0,0-1.85,1.95,13.16,13.16,0,0,0-.64,1.86c-.1.35-.21.58-.66.41V53.91h19.86v5.92c-.37.15-.58.09-.71-.34a11.18,11.18,0,0,0-.65-1.87,3.84,3.84,0,0,0-3.38-2.4c-.82-.06-1.63,0-2.53,0V72.62c0,.25,0,.51,0,.76a1.9,1.9,0,0,0,2.07,2C258.18,75.4,258.49,75.39,258.81,75.39ZM140.15,54.53v-.62h10.53l0,.5a1.17,1.17,0,0,1-.2.06c-.44,0-.89,0-1.33.12-1.06.17-1.36.67-1,1.69s.77,1.9,1.18,2.85q2.06,4.82,4.13,9.64l.26.54c.65-1.44,1.26-2.82,1.88-4.2,1.05-2.36,2.1-4.71,3.12-7.08a6.18,6.18,0,0,0,.45-1.56,1.42,1.42,0,0,0-1.05-1.72,16.6,16.6,0,0,0-1.76-.35c0-.11,0-.27,0-.48h7.24l0,.55A4.15,4.15,0,0,0,160.71,57q-2.19,4.7-4.33,9.41c-1.45,3.18-2.87,6.37-4.32,9.55-.09.21-.34.48-.52.49s-.42-.28-.51-.49q-4-9.21-7.94-18.44c-.16-.36-.34-.7-.49-1.06C142.14,55.37,141.52,54.49,140.15,54.53Zm-1.1,20.84V76H127.57c0-.17,0-.33,0-.51l.24-.07a10.86,10.86,0,0,0,1.51-.13,1.54,1.54,0,0,0,1.28-1.53c0-.48.06-1,.06-1.45q0-7.32,0-14.65c0-.43,0-.85-.05-1.28A1.66,1.66,0,0,0,129,54.57c-.46-.09-.93-.09-1.44-.14,0-.14,0-.3,0-.52H139v.51a15.6,15.6,0,0,0-1.58.17,1.59,1.59,0,0,0-1.42,1.6c0,.42-.07.85-.08,1.28v15c0,.37,0,.74.07,1.11a1.77,1.77,0,0,0,1.76,1.74C138.19,75.4,138.6,75.37,139.05,75.37Zm102.13,0V76H229.72v-.58c.38,0,.74,0,1.11,0a1.75,1.75,0,0,0,1.87-1.75,10,10,0,0,0,.07-1.22c0-5.13,0-10.27,0-15.41,0-2-.84-2.52-2.58-2.53h-.46V53.9h11.43c0,.18,0,.34,0,.5l-.19.07h-.64c-1.55.05-2.23.68-2.23,2.22q0,8.25,0,16.51c0,1.53.7,2.17,2.23,2.18Zm-55-51.87h16.88v6H186.19ZM132.42,93h-4.71c0-.1.05-.16.07-.17.73-.26.79-.42.32-1-.75-1-1.53-2-2.41-3.08a2.77,2.77,0,0,0-.25.71c0,.64,0,1.29,0,1.93,0,1.16,0,1.16,1.06,1.64h-4.55s0-.06,0-.09a.92.92,0,0,1,.23-.09c.91-.12,1-.26,1-1.18q0-3.08,0-6.13c0-1-.1-1.11-1.1-1.24-.07,0-.12-.06-.16-.19h4.51c0,.08,0,.14,0,.14-1,.25-1,.3-1,1.32v2.8L128.28,86a6.47,6.47,0,0,0,.83-.73,1,1,0,0,0,.26-.7c0-.15-.39-.23-.61-.33a.51.51,0,0,1-.28-.2h3.65c-2,.8-3.18,2.31-4.79,3.4,1.28,1.57,2.48,3.1,3.74,4.58A7.69,7.69,0,0,0,132.42,93Zm67.13-6.16H202c0,.21,0,.41.06.63,2-1.19,2.66-1.16,3.54.22.16-.15.3-.29.45-.42a2.35,2.35,0,0,1,1.7-.67,1.44,1.44,0,0,1,1.5,1.35c.09,1.26.07,2.52.1,3.79,0,.78,0,.79.63,1.14a7.58,7.58,0,0,1-3.28,0c.9-.31.74-1,.74-1.65,0-.92,0-1.83,0-2.75,0-.41,0-.91-.58-1a1.31,1.31,0,0,0-1.14,1c0,1.21,0,2.41.05,3.62,0,.27.33.52.53.81h-3.12c.84-.36.6-1.1.61-1.74,0-.89,0-1.79,0-2.68,0-.46,0-.94-.62-1a1.32,1.32,0,0,0-1.12,1c0,1.14,0,2.29,0,3.43,0,.33.33.65.51,1h-3.1c.84-.31.65-1,.65-1.6,0-1.07,0-2.14,0-3.21,0-.55,0-1.07-.73-1.22Zm-25.89,5.89-2.62.5c0-.29,0-.53-.07-.84a1.93,1.93,0,0,0-.22.17,2,2,0,0,1-3.42-.61,4.19,4.19,0,0,1,.15-4.18c.75-1.28,2.1-1.48,3.49-.54a19.58,19.58,0,0,0,0-2.43c0-.26-.52-.45-.85-.72h2.83v7.12c0,.59-.16,1.27.88,1.32ZM171,89.87c0-.48,0-1,0-1.45a1.32,1.32,0,0,0-1.1-1.12c-.58,0-.77.43-.86.86a6.62,6.62,0,0,0,.09,3.45c.1.3.43.72.69.74s.67-.28.94-.52a1.08,1.08,0,0,0,.24-.68C171,90.73,171,90.3,171,89.87Zm42.31,2.65V95c0,.59.41.75,1,.77l-.08.16h-3.51c1-.38.7-1.25.7-2,0-1.86,0-3.73,0-5.59,0-.6.16-1.27-.86-1.35l.14-.14h2.58c0,.15,0,.32.06.55.12-.09.22-.15.31-.23a2,2,0,0,1,3,.23,4.56,4.56,0,0,1,.07,4.94c-.82,1.08-2.09,1.17-3.41.18Zm0-2.51c0,.49,0,1,0,1.45a1.34,1.34,0,0,0,1.1,1.05c.55,0,.74-.35.85-.77a4,4,0,0,0,.16-1,17.74,17.74,0,0,0-.21-2.53.77.77,0,0,0-1.27-.55,2.5,2.5,0,0,0-.62,1.11,6,6,0,0,0,0,1.27Zm-118,2.55c0,.83,0,1.58,0,2.33s.41.8.9,1H92.71l-.16-.14c1-.09.88-.8.88-1.4q0-3,0-6.07c0-.58.13-1.23-.87-1.29l.14-.14h2.59c0,.16,0,.34.07.53,1.2-.89,2-1.07,2.79-.42a3.52,3.52,0,0,1,1.06,1.47,4.42,4.42,0,0,1-.06,3.2,2.22,2.22,0,0,1-3.58,1A1.36,1.36,0,0,0,95.32,92.56Zm0-2.53v1.4a1.33,1.33,0,0,0,1.12,1.08c.55,0,.76-.37.84-.8a8.69,8.69,0,0,0,.16-1.84,7.45,7.45,0,0,0-.3-1.87A.7.7,0,0,0,96,87.58a2.38,2.38,0,0,0-.69,1.12,4.92,4.92,0,0,0,0,1.33Zm5-3.19h2.58c0,.17,0,.34.05.57l.28-.21a2,2,0,0,1,3.07.21,4.57,4.57,0,0,1,.09,4.89c-.83,1.1-2.05,1.21-3.42.25,0,.89,0,1.75,0,2.61,0,.18.32.36.51.51s.23.08.32.24H100.3c1-.34.71-1.14.72-1.82,0-1.9,0-3.8,0-5.71,0-.6.16-1.3-.86-1.41ZM102.91,90a14.2,14.2,0,0,0,0,1.46c.06.56.5.84,1,1a.63.63,0,0,0,.83-.45,6.23,6.23,0,0,0,0-4.09.69.69,0,0,0-1.09-.37,2.54,2.54,0,0,0-.7,1.12A5.36,5.36,0,0,0,102.91,90Zm72.34,3.62c-.95-.86-.78-1.61.79-2.69-.11-.06-.19-.12-.28-.16a2,2,0,0,1-1.27-2.09,2.13,2.13,0,0,1,1.45-1.87,3.1,3.1,0,0,1,1.24-.23c.56,0,1.11.2,1.66.25s1.12,0,1.71,0v.74h-1.11a1.93,1.93,0,0,1,.11,2.57,2.68,2.68,0,0,1-2.44,1c-.19,0-.44-.07-.57,0a3.5,3.5,0,0,0-.55.65c.2.16.4.44.62.46.81.09,1.63,0,2.44.12a1.49,1.49,0,0,1,1.5,1.22,1.71,1.71,0,0,1-1,1.89,5.46,5.46,0,0,1-4.46.07c-.28-.11-.65-.56-.6-.8.06-.39.43-.72.71-1.14ZM178.2,89a6.72,6.72,0,0,0-.24-1.34.94.94,0,0,0-.65-.54.91.91,0,0,0-.7.47,3.6,3.6,0,0,0,0,2.66.89.89,0,0,0,.67.5,1.06,1.06,0,0,0,.72-.54A4.9,4.9,0,0,0,178.2,89Zm-.59,5V94a6.71,6.71,0,0,0-1.27,0c-.25,0-.62.3-.65.5a.83.83,0,0,0,.42.7,3.58,3.58,0,0,0,3-.09.72.72,0,0,0,.35-.59c0-.19-.3-.42-.5-.47a11.57,11.57,0,0,0-1.32-.13Zm-90-10.33.36.8q1.53,3.5,3.07,7c.27.61.49,1.3,1.34,1.41l-.06.14H88a.51.51,0,0,1,0-.13c.18,0,.37,0,.56-.08.4-.07.59-.29.43-.7a13,13,0,0,0-.58-1.33.6.6,0,0,0-.43-.26c-.82,0-1.64,0-2.45,0a.93.93,0,0,0-.51.34,1.48,1.48,0,0,0-.2.42c-.45,1-.31,1.31.79,1.55.07,0,.12.07.16.21h-3c1-.47,1.3-1.48,1.7-2.35,1-2.1,1.89-4.21,2.84-6.32C87.32,84.13,87.42,84,87.57,83.63ZM88,89.92c-.45-1-.85-2-1.31-3l-1.35,3ZM247.19,93c1.25-.48,1.25-.48,1.25-1.89V85.45c0-1-.06-1.1-1.1-1.22-.05,0-.1,0-.15-.16H252a.24.24,0,0,0,0,.08.71.71,0,0,1-.18.08c-1.1.13-1.16.14-1.18,1.23,0,2.07,0,4.15,0,6.23,0,.6.29.85.86.84h.29c2.13,0,2.63-.34,3.35-2.33.06-.13.13-.27.2-.39l.21.06c-.11,1-.22,2.08-.32,3.12ZM132.72,86.84h2.5c0,.18.05.38.08.64.27-.21.48-.4.72-.55a1.67,1.67,0,0,1,2.73,1.4c.05,1.07.05,2.14.05,3.21,0,.91,0,.91.74,1.44h-3.23c.68-.37.59-1,.59-1.55,0-1,0-2,0-2.92,0-.44,0-.9-.58-1a1.19,1.19,0,0,0-1,1c0,1.21,0,2.42,0,3.62,0,.28.31.55.49.85h-3.06c.75-.31.65-1,.65-1.54v-3c0-.59.11-1.24-.65-1.56Zm14.22,0h3c-.88.37-.39.92-.21,1.41.23.67.5,1.34.81,2.15a12.58,12.58,0,0,0,.78-2.31c0-.37-.4-.81-.63-1.23h3.22c-1.06.37-.61.92-.43,1.42.23.66.47,1.31.77,2.13.35-1,.68-1.85.91-2.73.05-.22-.26-.53-.42-.81h1.59a11.72,11.72,0,0,0-.8,1.48c-.56,1.47-1.06,3-1.61,4.43a1.66,1.66,0,0,1-.36.45,1.93,1.93,0,0,1-.37-.45c-.51-1.32-1-2.64-1.55-4.1l-.82,2.23c-.23.63-.46,1.28-.7,1.91a2,2,0,0,1-.32.41,1.85,1.85,0,0,1-.32-.43c-.54-1.42-1-2.85-1.6-4.25a17.85,17.85,0,0,0-.92-1.71Zm83.22,3.08c0,2.34-1.66,3.74-3.78,3.21a2.51,2.51,0,0,1-1.59-1.27,3.84,3.84,0,0,1-.14-3.59,2.7,2.7,0,0,1,2.93-1.65,2.88,2.88,0,0,1,2.5,2.49c0,.26.06.54.08.81Zm-1.95,0c-.06-.63-.1-1.38-.21-2.13a.72.72,0,0,0-.78-.65.75.75,0,0,0-.76.67,12.36,12.36,0,0,0-.05,4.16.84.84,0,0,0,.82.78.8.8,0,0,0,.79-.79C228.11,91.3,228.14,90.66,228.21,89.89ZM198.72,93H194a.36.36,0,0,1,0-.1,1.23,1.23,0,0,1,.26-.12c.8-.1,1-.26,1-1.06q0-3.19,0-6.41c0-.84-.08-.88-1.24-1.24h4.79c-.1.08-.13.14-.18.15-1.14.2-1.14.2-1.14,1.36v6c0,1,.06,1.06,1.06,1.2l.2.08Zm-52.41-3.1c-.09,2.34-1.78,3.76-3.88,3.22a2.48,2.48,0,0,1-1.67-1.43,3.84,3.84,0,0,1,.09-3.69,2.57,2.57,0,0,1,2.57-1.4,2.61,2.61,0,0,1,2.42,1.63A15.24,15.24,0,0,1,146.31,89.9Zm-4,.07c.06.66.09,1.36.19,2,.07.42.38.78.8.69s.72-.42.74-.67c.08-1.38.09-2.78.06-4.17a.76.76,0,0,0-.76-.75h-.06a.78.78,0,0,0-.78.79C142.4,88.57,142.36,89.25,142.3,90Zm118,3c1.16-.19.9-1.06.9-1.79,0-1.22,0-2.44,0-3.69l-.85-.08c0-.18,0-.36-.05-.58l.85-.09c0-.18,0-.35,0-.52a2.21,2.21,0,0,1,2.14-2.42,4.08,4.08,0,0,1,1.59.2.72.72,0,0,1,.52.89.88.88,0,0,1,0,.15.85.85,0,0,1-1.09.43.65.65,0,0,1-.52-.73,1.89,1.89,0,0,0-.24-.6c-.15.2-.41.38-.43.59-.06.65,0,1.31,0,2l.89.07c0,.17,0,.36,0,.58l-.93.11V90c0,.51,0,1,0,1.52,0,1,0,1,1.06,1.45ZM113.45,95.27a2,2,0,0,0,.41-.2,2.48,2.48,0,0,0,.54-2.48c-.58-1.34-1.13-2.69-1.75-4a18.21,18.21,0,0,0-1-1.75H115c-1.15.46-.62,1.08-.39,1.63.3.76.65,1.49,1.05,2.41.39-1.13.75-2.09,1-3.07.17-.55-.25-.73-.68-1h2.21c-.88.42-1,1.17-1.29,1.83l-2.39,6.06A1.72,1.72,0,0,1,113.23,96a1.26,1.26,0,0,1-1.26-.45.84.84,0,0,1,0-1.12,1.27,1.27,0,0,1,.9-.34c.45,0,.53.44.55.83Zm129.77-5.54h-3.45A2.48,2.48,0,0,0,241,92c.94.47,1.52-.19,2.15-1a2.43,2.43,0,0,1,0,.56,2.65,2.65,0,0,1-2.64,1.64,2.44,2.44,0,0,1-2.33-1.94,4.25,4.25,0,0,1,.14-3,2.78,2.78,0,0,1,2.84-1.71,2.58,2.58,0,0,1,2.06,2.44C243.19,89.24,243.2,89.44,243.22,89.73Zm-1.57-.52a10.64,10.64,0,0,0-.36-1.69.62.62,0,0,0-1.15-.09,2.4,2.4,0,0,0-.37,1.78Zm-55.06.53h-3.47a2.51,2.51,0,0,0,1.2,2.29c.94.48,1.52-.2,2.05-.87l.13.07a2,2,0,0,1-.07.41,2.64,2.64,0,0,1-2.68,1.58,2.46,2.46,0,0,1-2.28-2,4.17,4.17,0,0,1,.28-3.12,2.76,2.76,0,0,1,2.7-1.48,2.52,2.52,0,0,1,2,2.13C186.54,89,186.55,89.35,186.59,89.74ZM185,89.21a9.49,9.49,0,0,0-.29-1.63.64.64,0,0,0-1.23-.06,11.36,11.36,0,0,0-.48,1.69Zm-19,1.85c.05.24.1.34.07.41a2.73,2.73,0,0,1-2.46,1.76,2.44,2.44,0,0,1-2.46-1.61,4.28,4.28,0,0,1-.06-3.07,2.81,2.81,0,0,1,2.86-2,2.65,2.65,0,0,1,2.15,2.56,5.2,5.2,0,0,1,0,.56h-3.41A2.43,2.43,0,0,0,163.84,92c.95.47,1.52-.19,2.13-1Zm-1.46-1.86a10.09,10.09,0,0,0-.28-1.56.9.9,0,0,0-.61-.5.84.84,0,0,0-.66.43,11.24,11.24,0,0,0-.47,1.63Z"/><path class="cls-1" d="M270,91.18a2.56,2.56,0,0,1-4.84.54,4,4,0,0,1,.62-4.31,2.37,2.37,0,0,1,4.13,1,9.76,9.76,0,0,1,.24,1.26h-3.51A2.59,2.59,0,0,0,267.82,92c1,.53,1.59-.18,2.22-.82Zm-3.51-2h2.05a9.81,9.81,0,0,0-.36-1.67.63.63,0,0,0-1.18,0,12.33,12.33,0,0,0-.51,1.71ZM156.69,92.81c1,0,.86-.66.86-1.23V85.34c0-.56,0-1.09-.83-1.13l.1-.14h2.62v7.56c0,.57,0,1.1.74,1.33h-3.35Zm-48.8.16c.72-.51.72-.51.72-1.49V85.54c0-.59.16-1.28-.87-1.35l.15-.14h2.61v7.56c0,.55,0,1.16.78,1.31A15.37,15.37,0,0,1,107.89,93Zm114,0H218.5c.87-.38.65-1.14.66-1.8,0-1,0-2,0-3,0-.85,0-.85-.79-1.3H221c0,.34.07.69.1,1a8.88,8.88,0,0,1,1.55-1.15c.72-.33,1.27.16,1.19,1a.78.78,0,0,1-1.3.61c-.63-.41-1-.31-1.21.39a5.31,5.31,0,0,0-.24,1.31c0,.56,0,1.12,0,1.69s0,1.18.92,1.15Zm9-6.16H234c-.83.4-.5,1-.27,1.52.33.76.67,1.51,1,2.36.36-.89.7-1.67,1-2.47s.24-.93-.6-1.38h2.27c-1,.5-1.11,1.37-1.44,2.13-.56,1.28-1.09,2.57-1.64,3.85a2.19,2.19,0,0,1-.29.39c-.12-.13-.3-.24-.37-.39-.67-1.5-1.31-3-2-4.52C231.49,87.8,231.15,87.34,230.85,86.83Zm25.46,0h2.63v4.8c0,.56,0,1.1.72,1.34H256.3c1-.27.74-1,.75-1.72,0-1,0-2,0-3,0-.61,0-1.2-.83-1.31Zm16.47,3.33c-.13-.12-.2-.15-.21-.19-.32-1.58-.67-3.14-.94-4.72-.15-.9.26-1.43,1-1.48a1.08,1.08,0,0,1,1.21,1.32c-.18,1-.45,2.08-.67,3.12C273,88.83,272.92,89.45,272.78,90.16ZM278,88.58a2.72,2.72,0,0,1-2.74-2.69v0A2.75,2.75,0,1,1,278,88.58Zm0-.35a2.38,2.38,0,0,0,2.41-2.33v-.06a2.4,2.4,0,1,0-4.79-.12.71.71,0,0,0,0,.14A2.37,2.37,0,0,0,278,88.23ZM189.73,92.1A1.13,1.13,0,1,1,188.58,91h0a1.1,1.1,0,0,1,1.1,1.08Zm81.88,0A1.06,1.06,0,0,1,272.69,91h.07a1.07,1.07,0,0,1,1,1.11v0a1.08,1.08,0,0,1-1.14,1h0a1.08,1.08,0,0,1-1-1.12ZM258,83.77a1,1,0,0,1,1,1v.06a1.05,1.05,0,0,1-1.07,1,1.07,1.07,0,0,1-1-1.08,1,1,0,0,1,1-1ZM42.7,16.65c-1.5-.35-2.29.32-2.61,1.75L40,18.27V16.06H47.5v2.37c-.37-.61-.57-1.24-1-1.54a4.13,4.13,0,0,0-1.56-.4c-.12.17-.16.2-.16.23,0,2.16,0,4.32,0,6.48,0,.82.06.82,1.15,1.19H41.57c0-.06,0-.11,0-.11,1.05-.22,1.08-.24,1.08-1.34ZM29.78,24.76c-.16-.28-.27-.43-.35-.6l-2.76-6.41c-.28-.65-.45-1.37-1.23-1.72h4l0,.15a5.17,5.17,0,0,1-.54.11c-.44.06-.59.27-.41.68l2.1,4.9c.36-.79.66-1.46,1-2.14s.65-1.41.93-2.13c.35-.89.22-1.12-.69-1.33-.07,0-.12-.07-.17-.23h2.9C32.92,17,32.72,18.62,32,20s-1.21,2.74-1.81,4.1A5.64,5.64,0,0,1,29.78,24.76Zm9.47-8.68c-.1.09-.13.15-.18.17C38,16.5,38,16.5,38,17.62V22.7C38,24,38,24,39.18,24.38h-4.5a1.64,1.64,0,0,1,.29-.16c1-.22,1-.22,1-1.22V17.46c0-1,0-1-.94-1.19a.28.28,0,0,1-.18-.19Zm21.2,4.37-1-1.65c.72.26,3.13-1.19,3.2-2l1,1.57c-.82-.37-1.13.28-1.69.49l.68,1.1c.39-.46,1.24-.35,1.18-1.29l.88,1.44a2,2,0,0,0-.65.09c-.74.43-1.47.87-2.18,1.35-.16.11-.21.37-.33.6l-.94-1.47c.78.32,1.14-.32,1.78-.52L61.7,19C61.23,19.46,60.43,19.44,60.45,20.45ZM7.48,27c-.19-.84-2.8-1.83-3.61-1.31.41-.89.74-1.67,1.11-2.42a.9.9,0,0,1,1.07-.51.89.89,0,0,1,.75.9.76.76,0,0,0,.06.2l2-.5A1,1,0,0,1,8,24.52L6.43,25c.83.62,1.21.69,1.75.28ZM6.07,25l.23-.08c0-.33,0-.73-.18-1a.89.89,0,0,0-.82-.23c-.24.07-.41.39-.69.69ZM44.34,4A2,2,0,0,1,46.4,6a2,2,0,1,1-4-.06A1.9,1.9,0,0,1,44.29,4ZM45.58,5.3c-.2-.3-.34-.7-.61-.86a.74.74,0,0,0-1.07.4,8.25,8.25,0,0,0-.59,1.8.88.88,0,0,0,.6,1,.83.83,0,0,0,1-.56C45.19,6.56,45.34,6,45.58,5.3ZM64.82,36.83a1.82,1.82,0,0,1,2-2,1.85,1.85,0,0,1,1.94,2,1.89,1.89,0,0,1-2,2A1.85,1.85,0,0,1,64.82,36.83Zm2-1a6.08,6.08,0,0,0-1.24.31.92.92,0,0,0-.44.7.9.9,0,0,0,.44.7,2.78,2.78,0,0,0,2.31.1,1,1,0,0,0,.57-.69,1.08,1.08,0,0,0-.47-.77A5,5,0,0,0,66.78,35.83ZM65.68,30a2,2,0,0,1-1.94-2,2,2,0,0,1,2-2h0a2,2,0,0,1,2,2.14A1.93,1.93,0,0,1,65.68,30Zm-.61-.8a12,12,0,0,0,1.89-.7,1.23,1.23,0,0,0,.39-1,.89.89,0,0,0-.7-.51,6.92,6.92,0,0,0-2,.41.79.79,0,0,0-.56,1.06C64.29,28.78,64.74,29,65.07,29.19ZM3.1,29A1.93,1.93,0,0,1,5,27a1.92,1.92,0,0,1,2,1.93,2,2,0,0,1-2,2.09A1.89,1.89,0,0,1,3.1,29Zm1.49-1.25c-.67.09-1.12.28-1.17.71a1.14,1.14,0,0,0,.33.89A2.7,2.7,0,0,0,6,29.93a1,1,0,0,0,.64-.63.93.93,0,0,0-.35-.8,13.22,13.22,0,0,0-1.74-.71ZM59.83,58.68a5.39,5.39,0,0,0-1.59-.49,5.8,5.8,0,0,0-1.67.57,5,5,0,0,0,.6-1.59,5.25,5.25,0,0,0-.64-1.66,2.84,2.84,0,0,0,3.39.11,2.3,2.3,0,0,0,.1,3Zm-45.49-3a2.17,2.17,0,0,0,.07,3l-.16.06a5.54,5.54,0,0,0-1.61-.5A7.3,7.3,0,0,0,11,58.7a2.24,2.24,0,0,0,0-3A3.25,3.25,0,0,0,14.34,55.64Zm53.41-12-1.19-.22a6.65,6.65,0,0,0,.92-.53A1.06,1.06,0,0,0,67.25,41a6,6,0,0,0-1.64-.35,1.24,1.24,0,0,0-.72.29A.85.85,0,0,0,64.58,42c.12.27.94.21,1.35-.12-.11.61-.2,1.14-.28,1.56a4.37,4.37,0,0,0-.89-.36.53.53,0,0,1-.52-.57,2.76,2.76,0,0,1,.7-2.37,1.92,1.92,0,0,1,2.1-.39,1.84,1.84,0,0,1,1.16,1.86,7.87,7.87,0,0,1-.3,1.23C67.84,43.1,67.8,43.33,67.75,43.62ZM38.11,3.27c0,.44-.08.88-.12,1.34.59.1.7-.31.95-.65-.06.6-.12,1.2-.18,1.92-.28-.37-.13-1-.77-.87a2,2,0,0,0-.07.42c0,.36-.28.87.22,1A1.09,1.09,0,0,0,39.52,6a.45.45,0,0,1,.32-.22,6.31,6.31,0,0,1-.2.86.45.45,0,0,1-.33.22c-1-.08-1.92-.18-2.74-.26a4,4,0,0,0,.34-.81c.1-.71.16-1.43.19-2.15a3,3,0,0,0-.19-.78c.82.06,1.72.11,2.63.22.11,0,.26.25.28.39a2.14,2.14,0,0,1-.14.75A1.27,1.27,0,0,0,38.11,3.27Zm20.54,9L58,13a1.36,1.36,0,0,0-.77-1.66l-.94,1c.41.46.76.1,1.17.07l-1.25,1.37v-1.1L56,12.63c-.26.28-.51.57-.74.87a.57.57,0,0,0,.09.48,1.19,1.19,0,0,0,1.69.21c0,.05,0,.1,0,.15l-.92.74L53.84,13c.84,0,2.69-2.13,2.46-2.9ZM7.29,18.53l.88.49C7.34,19,7,19.47,6.7,20.17l1.24.63.18-.12-.4-1,1.53.88-1,.25V21a6.34,6.34,0,0,0,1,.54.57.57,0,0,0,.51-.19,1.18,1.18,0,0,0-.13-1.61l.12-.08.9.63L9.06,23.08c-.09-.77-2.49-2.16-3.29-1.86Zm-2,21.36H6.38l.27,1.54c.09.49.18,1,.28,1.56-.53-.52-3.36,0-3.72.63-.18-1-.35-2-.54-3l1-.17c-.69.47-.62,1.07-.4,1.78L4.63,42c0-.63-.5-.56-.85-.77l1.74-.32-.67.83.12.18a9.3,9.3,0,0,0,1.17-.23c.11,0,.2-.3.2-.46,0-.7-.49-1-1.17-1.18Zm61-16.38.45,1c-.42-.29-.78-.1-1.16.07-.81.38-1.65.73-2.48,1.09l-.11-.12,1.71-3.3c-1.4.32-2.31.85-2.42,1.47l-.43-1a4.25,4.25,0,0,0,1-.09c.53-.17,1-.45,1.55-.65s.78-.33.73-.89c.41.65.81,1.23.21,2a10.13,10.13,0,0,0-.85,1.6A1.89,1.89,0,0,0,66.24,23.51ZM13.36,11.29a5.18,5.18,0,0,0,.57,1c.47.52,1,1,1.5,1.47a1.13,1.13,0,0,1,.33.58l-1.88-.23A14.52,14.52,0,0,0,12,14c.7.61,1.07,1.62,2.28,1.73l-1,.87c.24-.92-1.6-2.84-2.47-2.7.38-.77.63-.92,1.46-.85l1.05.12,1,.1a1.76,1.76,0,0,0-1.82-1.17l.47-.5C13.17,11.45,13.32,11.33,13.36,11.29ZM47.8,5.15l2.81,1.28-.39,1a3.19,3.19,0,0,0-.38-.92A4,4,0,0,0,49,5.93c-.23.5-.43.92-.62,1.35.44.35.76.09,1.16-.17-.1.26-.2.52-.32.78s-.26.51-.44.85c-.08-.47.13-1-.56-1.13-.12.57-.83,1-.25,1.79l-1.7-.8C47,8.44,48.16,5.89,47.8,5.15ZM30.42,3.24l.83-.15a3.26,3.26,0,0,0-.13.77c.06.59.18,1.15.27,1.73a1.28,1.28,0,0,1-1.07,1.59c-1,.2-1.51-.11-1.72-1.06-.11-.53-.19-1.07-.33-1.59a5,5,0,0,0-.4-.85l1.2-.13c.17.9.33,1.77.5,2.63.07.39.27.69.68.66s.88-.26.84-.73a20.34,20.34,0,0,0-.4-2.46C30.66,3.5,30.51,3.37,30.42,3.24ZM65,46.3c.66,1.17,1.11,1.5,1.63,1.21l-.32,1c-.51-.66-1-1.29-1.47-1.87a1.46,1.46,0,0,0-1.8-.3c.2-.59.4-1.18.65-1.89a1.14,1.14,0,0,0,1.21,1c.86-.11,1.71-.33,2.59-.5-.14.45-.3,1-.46,1.52C66.35,45.74,65.71,46.45,65,46.3ZM35.1,6.6l-1.73.1c.5-.28.38-.73.36-1.14,0-.8-.1-1.59-.17-2.6l-1.14.85c0-.2-.05-.5-.08-.89h3.39l.08.84c-.34-.38-.59-.82-1.13-.61,0,1,0,2,0,3C34.7,6.28,34.94,6.43,35.1,6.6ZM16.28,9.15l.61.76-.05.09a1.71,1.71,0,0,0-.39-.17,1.49,1.49,0,0,0-.83-.05c-.22.1-.37.43-.54.66a2.34,2.34,0,0,0,.7.33,3.64,3.64,0,0,0,1-.11c.76-.12,1.24.11,1.43.68a1.4,1.4,0,0,1-.79,1.58c-.29.14-.55.32-.87.51l-.64-.76a2.21,2.21,0,0,1-.18-.34,2.89,2.89,0,0,0,.66.32,1.66,1.66,0,0,0,.94,0c.23-.11.32-.48.47-.74a2.43,2.43,0,0,0-.73-.31,6.89,6.89,0,0,0-1.1.09c-.72.06-1-.14-1.21-.71a1.18,1.18,0,0,1,.7-1.43C15.7,9.43,16,9.3,16.28,9.15ZM61.82,16l-.78.64L61,16.6c0-.13.1-.26.16-.39a1.09,1.09,0,0,0-.2-1.19,1,1,0,0,0-1.16-.32,2.53,2.53,0,0,0-1.59,1.44,1,1,0,0,0,.66,1.36c.24.09.5.14.76.21v.17a2.53,2.53,0,0,1-.55,0,2.25,2.25,0,0,1-1.56-2.1A2.07,2.07,0,0,1,59.06,14a2.14,2.14,0,0,1,2.3,1.21c.12.25.27.49.46.83Zm-41.9-4.94a2.14,2.14,0,0,0-.07-.68C19.4,9.59,18.91,8.8,18.43,8c-.64.14-.74.56-.74,1.14l-.5-.79,2.93-1.74.48.78c-.48-.13-.9-.38-1.31,0,.29,1.09,1.48,2.73,2.18,2.77ZM53.6,8.59c-.41-.51-.83-.38-1.32-.17l.5-.77,2.83,1.91-.58.77c0-.52,0-1-.66-1.17-.54,1-1.46,1.75-1.73,2.94l-1.35-.87c.54.09.75-.28,1-.62ZM2.43,37.64a3.2,3.2,0,0,0,.81.23,12.07,12.07,0,0,0,1.8-.1c.29,0,.73-.14.8-.33a1,1,0,0,0-.38-1.23,4.42,4.42,0,0,1-.65-.4,6.65,6.65,0,0,1,1,0,.52.52,0,0,1,.32.37c0,1,0,1.9,0,2.77-.44-.41-3.17-.3-3.72.33Zm23.24-33c.3.91.58,1.81.9,2.7.07.19.29.31.47.48l-1.48.48a3.53,3.53,0,0,0,0-.92c-.23-.82-.53-1.62-.8-2.42-.68,0-.84.42-.95,1L23.51,5l3.2-1,.29.86C26.58,4.6,26.23,4.3,25.67,4.66ZM5.12,31.71,6.36,32l-.22,3.1a4.49,4.49,0,0,0-.92-.34,18.42,18.42,0,0,0-2.09-.18,3.07,3.07,0,0,0-.76.17c0-.43.07-1,.1-1.45a4.39,4.39,0,0,0,.94.34,10.69,10.69,0,0,0,1.69.13c.29,0,.71,0,.84-.24a1.06,1.06,0,0,0-.36-1.33l-.51-.32Zm61.05,2.43c-.34,0-.68,0-1,0a.46.46,0,0,1-.29-.27c-.14-1-.26-1.95-.37-2.8a3.61,3.61,0,0,0,1,.19c.9-.08,1.8-.24,2.71-.37.08.45.18.95.24,1.31a3.56,3.56,0,0,0-.94-.22,12.54,12.54,0,0,0-1.73.19c-.3,0-.76-.08-.78.41a1.15,1.15,0,0,0,.58,1.24,4.84,4.84,0,0,0,.65.19ZM4.67,48.22l-.53-1.6.13-.1.15.51,2-1.76c-.79-.07-1.4-.15-2-.16-.19,0-.39.19-.66.33-.05-.18-.14-.51-.21-.74l4.26.47a4.71,4.71,0,0,1-.36.42c-.75.67-1.52,1.33-2.26,2A5,5,0,0,0,4.67,48.22ZM24.28,8.83l-1.74.8c.34-.68-.89-3.3-1.63-3.43l1.72-.76C22.24,6.09,23.43,8.69,24.28,8.83Zm-14,5.73c-.06.78,2.15,2.54,2.93,2.35l-.75.95c-.11.13-.24.25-.36.4-.1-.8-2.31-2.47-3-2.22l.61-.77C9.84,15,10,14.83,10.24,14.56ZM25.74,63l-5,1.57C21.34,63.54,24,62.9,25.74,63ZM45,63a7.66,7.66,0,0,1,5.24,1.6Zm-20.81-.44L20,64A5.63,5.63,0,0,1,24.16,62.57ZM50.8,64l-4.16-1.46A5.67,5.67,0,0,1,50.8,64Zm.66-.68-3.8-1.28A5,5,0,0,1,51.46,63.35Zm-32.13,0A4.66,4.66,0,0,1,23,62.12Zm29.94-1.64a3.32,3.32,0,0,1,2.74,1Zm-30.53,1a2.89,2.89,0,0,1,2.52-.92Zm31.62-1.42a2.78,2.78,0,0,1,2.29.79ZM18,61.83,20.35,61l.06.18-2.36.83Zm-.61-.58,1.7-.55.05.14-1.68.59Zm32.55,7.31c-.22,0-.49-.11-.63,0-.38.27-.59.14-.76-.2a11.23,11.23,0,0,1-.63,1.25.86.86,0,0,1-1.08.34c-.44-.16-.5-.49-.47-.89a1.43,1.43,0,0,0-.15-.47c-.13.16-.32.31-.37.49s.07.37.11.57c-.49.1-.7-.12-.71-.57A1,1,0,0,1,46.16,68c.55,0,.79.35.83,1.26.54.07.79-.22.91-1.1l-2.2-.57c0-.32,0-.53.43-.41s1,.26,1.57.39l.09-.17-1-.56c-.05-.37.16-.56.53-.34a5.46,5.46,0,0,1,.94.8c.06.06,0,.21.11.26.23.19.47.36.71.54.1-.17.2-.34.29-.52a.7.7,0,0,1,.88-.38c.43.12.73.35.58,1-.21-.17-.36-.3-.51-.41a.92.92,0,0,0-.32-.18c-.05,0-.19.13-.18.17a.52.52,0,0,0,.18.3,1,1,0,0,1,.57,1.16.92.92,0,0,1-1,.89c-.41,0-.71-.21-.73-.67s.29-.73,1-.79Zm5,1.24L54,69.6c-.19.43-.35.82-.55,1.19a1.06,1.06,0,0,1-.35.38,3.1,3.1,0,0,1-2.47-.55.92.92,0,0,1,0-.8,1,1,0,0,1,.82-.37c.26,0,.51.35.71.58a3.52,3.52,0,0,1,.39.68,7.61,7.61,0,0,0,.67-.72,1.62,1.62,0,0,0,.14-.56l-2.24-.54.12-.54,1.9.42.08-.16L52.45,68c0-.33.15-.48.47-.29s.72.44.83.75c.17.5.51.56.91.67a1.17,1.17,0,0,1,.78,1.72c-.19.39-.53.64-.94.46a1.07,1.07,0,0,1-.53-.71c-.08-.44.28-.63.69-.68l.21,0A.49.49,0,0,1,54.88,69.8ZM22.07,68.13a.92.92,0,0,1,1.14.45,1.26,1.26,0,0,1,0,1.52,1,1,0,0,1-1.18.4,1.09,1.09,0,0,0-.46.08l-.81.23a2.42,2.42,0,0,0-.53.13.73.73,0,0,1-1.07-.22.76.76,0,0,1,.19-1.09.81.81,0,0,1,1.14.06v0a1.81,1.81,0,0,1,.19.29c.21.31.48.3.65,0a.7.7,0,0,0-.3-1A.47.47,0,0,0,20.9,69c-.22,0-.47,0-.7,0a2.47,2.47,0,0,1-.42-.17c.12-.09.22-.23.35-.28a3.46,3.46,0,0,0,.7-.29c-.41-.3-.78,0-1.15,0s-.76.47-1-.25l1.59-.34c0-.52.16-1,.77-1s.71.3.88.91l-.61-.21c-.16-.06-.3-.09-.45-.14.06.14.11.27.16.41s.21.48.3.73c0,.09,0,.22.07.29a7.53,7.53,0,0,0,.61.84,5.07,5.07,0,0,0,.61.52c.12-.2.34-.39.36-.6a.7.7,0,0,0-.53-.8,1.89,1.89,0,0,1-.47-.24Zm-10.82,3c-.05-.83.18-1,.82-1.08.83-.12,1.65-.35,2.47-.51a.87.87,0,0,1,1,.49,1,1,0,0,1-.14,1.28,3.52,3.52,0,0,1-1.17.31c-.2.56-.44.71-1.2.65a.78.78,0,0,0-.44.15.83.83,0,0,1-1.21-.24c-.25-.46-.07-.78.39-1,.08,0,.2-.09.23-.16a1.43,1.43,0,0,0,0-.41,1.82,1.82,0,0,0-.37.13A4.94,4.94,0,0,0,11.25,71.16Zm2.14.77L14.7,70l-.67.11a1,1,0,0,1-1,1,3,3,0,0,0-.91.42c-.07,0,0,.26-.05.39.15,0,.41,0,.44-.06C12.73,71.24,13,71.48,13.39,71.93Zm22.93-5c.78.47,1.4.4,1.8-.06-.28-.16-.74-.26-.83-.51s.23-.59.37-.9l.19,0-.13-.15a4.7,4.7,0,0,1-1,.26.55.55,0,0,1-.42-.37.57.57,0,0,1,.26-.5,2,2,0,0,1,.9-.09,2.16,2.16,0,0,1,1.32,1.68A1.25,1.25,0,0,1,38,67.53a1.75,1.75,0,0,1-2-.35.89.89,0,0,1,.33-1.44c.36-.13.69-.06.81.33a.57.57,0,0,1-.41.78Zm4.35-2.45c-.22.16-.38.36-.52.35a3.12,3.12,0,0,1-.74-.26c.13-.23.26-.62.41-.63a1.7,1.7,0,0,1,1,.24c.35.22.31.55,0,1.09l.38.52-.08.14-.55-.1c-.2-.05-.4-.18-.59-.15s-.25.21-.38.33a1.72,1.72,0,0,0,.43.18c.24,0,.47-.09.69-.08a.58.58,0,0,1,.52.91,1.25,1.25,0,0,1-1.24.7,1.1,1.1,0,0,1-1.15-.94,6,6,0,0,0,.71.25,3.73,3.73,0,0,0,.88.12c.1,0,.2-.24.29-.36a1.63,1.63,0,0,0-.43-.18c-.15,0-.32.1-.45.05a1.66,1.66,0,0,1-.78-.4c-.1-.14.1-.47.13-.72.06-.57.35-.52.8-.41s.63-.13.59-.65Zm15.58,7.67c-.59,0-.76-.27-.73-.75a.87.87,0,0,1,.9-.84h0a.65.65,0,0,1,.7.69,3,3,0,0,0,.2.67c.18-.15.49-.28.52-.46a1.06,1.06,0,0,0-.21-.8c-.18-.17-.54-.17-.82-.24-.67-.16-.87-.4-.82-1.1.16.1.36.14.41.26.24.49.52.35.84.11.52-.39.53-.38,1.11-.22,0,0,0,0,0,0s0,.26-.05.43h-.83l.45.27a1.23,1.23,0,0,1-.61,2.25.76.76,0,0,1-.83-1,1.48,1.48,0,0,0,0-.42s-.22-.06-.25,0a.84.84,0,0,0-.22.44A2.56,2.56,0,0,0,56.25,72.11Zm-40.68-3c.25,0,.45,0,.56.06.43.33.6,0,.81-.28a1.64,1.64,0,0,1,.59-.58c.3-.16.48,0,.43.35l-.57.32c.6.08,1.12.21,1.34.81a1.18,1.18,0,0,1-.22,1.31,1.31,1.31,0,0,1-.91.33c-.21,0-.38-.4-.56-.62l-.3-.35c-.06.17-.21.35-.17.48a2.89,2.89,0,0,0,.43.62c-.47.25-.76.07-.95-.37A.88.88,0,0,1,16.47,70a.68.68,0,0,1,1,.3,2.87,2.87,0,0,0,.47.52c.1-.23.35-.52.28-.68a1.08,1.08,0,0,0-.66-.58c-.25-.07-.56.11-.84.17C16.12,69.86,15.91,69.74,15.57,69.08ZM31.16,65.9a4.05,4.05,0,0,0-1-.31,3.19,3.19,0,0,0-.93.21l0,.2a3.26,3.26,0,0,1,.54,0,2.42,2.42,0,0,1,.39.21c-.12.08-.23.22-.37.24a8.79,8.79,0,0,1-.93,0,3.06,3.06,0,0,0,.43.61s.27-.16.41-.26.43-.28.62.07a.5.5,0,0,0,.34.23.37.37,0,0,0,.27-.23.88.88,0,0,0-.18-.38l-.27-.39.18-.19c.24.15.61.26.7.48a1,1,0,0,1-.14.88,2.18,2.18,0,0,1-1,.32c-.2,0-.41,0-.6,0a.87.87,0,0,1-1.06-.49c-.14-.26-.3-.5-.42-.77a.34.34,0,0,1,0-.31,13.55,13.55,0,0,0,1.21-.9c.17-.17.17-.51.26-.82.24-.08.46,0,.42.33s.17.43.45.54a3.26,3.26,0,0,1,.68.46Zm1.52.48c-.52.33-.52.33-.11,1.23-.51.14-.78-.08-.85-.58a.84.84,0,0,1,.71-1c.54-.07.75.11.86.68a1.42,1.42,0,0,0,.24.41c.15-.1.35-.17.44-.31a.67.67,0,0,0-.21-.93.68.68,0,0,0-.31-.11,6.32,6.32,0,0,0-.75,0c-.61,0-.84-.16-1-.84.21,0,.44,0,.52.14.33.41.53.18.8-.07a2.1,2.1,0,0,1,.74-.48c.34-.11.46.09.35.42l-.62.17s0,.08,0,.12.29.06.42.11a1.14,1.14,0,0,1,.76,1.24,1.28,1.28,0,0,1-1,1.1.75.75,0,0,1-.92-.78C32.73,66.73,32.7,66.58,32.68,66.38Zm27.26,6.67a1.24,1.24,0,1,1,0-2.48,1.28,1.28,0,0,1,1.35,1.23A1.26,1.26,0,0,1,59.94,73.05Zm-.74-1.27a.73.73,0,0,0,.77.75c.4-.06.76-.25.73-.74a.68.68,0,0,0-.77-.69A.67.67,0,0,0,59.2,71.78Zm-43.41,1c.31-.7.67.15.86,0-.26-.07-.14.93-.9.44.1.2.2.41.37.73,0,0-.18.14-.22.11-.44-.35-.76.13-1.13.13s-.76-.12-.81-.29c-.14-.45.3-.55.64-.63a7.15,7.15,0,0,1,.77,0L15,72.4c-.28.72-.62.66-.91.37l-.52.57c-.12-.7.1-1,.61-1,.12,0,.25,0,.33,0C15.15,72,15.53,72.23,15.79,72.82Zm19.69-4a4.52,4.52,0,0,1-1.07.16c-.22,0-.42-.3-.64-.46.18-.21.32-.51.54-.59a3.47,3.47,0,0,1,1,0l-.84-.67c.71-.2,1,0,1.22.47s.36.9.58,1.49Zm-1.69-10,6.84-.17c0,.07,0,.15,0,.23A3.1,3.1,0,0,1,40,59a25.22,25.22,0,0,1-6.26-.1A1.36,1.36,0,0,0,33.79,58.72ZM33,55.34c-.74,1-2.43.48-3.78-1.21Zm-1.14,4L26,59c2-.94,3.9,0,5.85.14Zm-8.32-2.16c1,0,1.61-.87,2.62-.51l-.5.37.4.34C25.21,58,24.46,57.7,23.54,57.23Zm13.68,2.62-3-.16a4.29,4.29,0,0,1,3,0Zm-2.65.46h3.17v.12H34.57Zm-5.95-.45-2.13-.1s-.1,0-.2-.11h2.34Zm-.59.82c-.82.33-1.24.27-1.66-.21Z"/><path class="cls-1" d="M278.62,85.93l.82,1.37c-.66.22-.78.17-1.12-.44-.16-.3-.33-.59-.5-.89l-.23.07c.1.45.19.9.28,1.33h-1.31a3.92,3.92,0,0,0,0-3.13h1.54c.5,0,1,.08,1.14.62S279.12,85.72,278.62,85.93Zm-.95-.14c.62,0,.79-.31.76-.77s-.26-.65-.76-.54Z"/></g></svg>